<svg width="32" height="32" viewBox="0 0 32 32" fill="none" xmlns="http://www.w3.org/2000/svg">
  <!-- Background with modern gradient -->
  <rect width="32" height="32" rx="8" fill="url(#bg-gradient)"/>
  
  <!-- Main document stack -->
  <g transform="translate(6, 4)">
    <!-- Back document -->
    <rect x="2" y="2" width="16" height="20" rx="2" fill="url(#doc-gradient)" opacity="0.7"/>
    
    <!-- Middle document -->
    <rect x="1" y="1" width="16" height="20" rx="2" fill="url(#doc-gradient)" opacity="0.85"/>
    
    <!-- Front document -->
    <rect x="0" y="0" width="16" height="20" rx="2" fill="url(#doc-gradient)"/>
    
    <!-- Document fold on front -->
    <path d="M0 0L4 4H3C2.44772 4 2 3.55228 2 3V0Z" fill="url(#fold-gradient)"/>
    
    <!-- Text lines on front document -->
    <rect x="3" y="6" width="10" height="1" rx="0.5" fill="white" opacity="0.9"/>
    <rect x="3" y="8" width="8" height="1" rx="0.5" fill="white" opacity="0.7"/>
    <rect x="3" y="10" width="9" height="1" rx="0.5" fill="white" opacity="0.8"/>
    <rect x="3" y="12" width="7" height="1" rx="0.5" fill="white" opacity="0.6"/>
    
    <!-- Tag icon overlay -->
    <circle cx="12" cy="16" r="2" fill="url(#tag-gradient)"/>
    <path d="M11 16L12.5 17.5L14 16" stroke="white" stroke-width="1" stroke-linecap="round" stroke-linejoin="round"/>
  </g>
  
  <!-- Gradients -->
  <defs>
    <linearGradient id="bg-gradient" x1="0%" y1="0%" x2="100%" y2="100%">
      <stop offset="0%" style="stop-color:#0f0f23"/>
      <stop offset="50%" style="stop-color:#1a1a2e"/>
      <stop offset="100%" style="stop-color:#16213e"/>
    </linearGradient>
    
    <linearGradient id="doc-gradient" x1="0%" y1="0%" x2="100%" y2="100%">
      <stop offset="0%" style="stop-color:#3b82f6"/>
      <stop offset="100%" style="stop-color:#8b5cf6"/>
    </linearGradient>
    
    <linearGradient id="fold-gradient" x1="0%" y1="0%" x2="100%" y2="100%">
      <stop offset="0%" style="stop-color:#1e40af"/>
      <stop offset="100%" style="stop-color:#7c3aed"/>
    </linearGradient>
    
    <linearGradient id="tag-gradient" x1="0%" y1="0%" x2="100%" y2="100%">
      <stop offset="0%" style="stop-color:#10b981"/>
      <stop offset="100%" style="stop-color:#059669"/>
    </linearGradient>
  </defs>
</svg> 